<?xml version="1.0" encoding="UTF-8"?>
<svg xmlns="http://www.w3.org/2000/svg" xmlns:xlink="http://www.w3.org/1999/xlink" width="80px" height="28px" viewBox="0 0 81 28" version="1.1">
<g id="surface1">
<path style=" stroke:none;fill-rule:evenodd;fill:rgb(70.196078%,61.568627%,85.882353%);fill-opacity:1;" d="M 35.980469 4.859375 C 35.960938 4.921875 35.953125 6.738281 35.964844 8.902344 L 35.988281 12.832031 L 36.007812 8.839844 L 36.027344 4.84375 L 37.425781 4.816406 L 38.824219 4.792969 L 37.421875 4.773438 C 36.367188 4.757812 36.011719 4.78125 35.980469 4.859375 M 39.660156 4.816406 C 39.792969 4.835938 40.003906 4.835938 40.132812 4.816406 C 40.265625 4.796875 40.15625 4.777344 39.898438 4.777344 C 39.636719 4.777344 39.53125 4.796875 39.660156 4.816406 M 43.574219 4.816406 C 43.773438 4.835938 44.105469 4.835938 44.304688 4.816406 C 44.507812 4.796875 44.339844 4.785156 43.941406 4.785156 C 43.539062 4.785156 43.375 4.796875 43.574219 4.816406 M 15.664062 10.007812 C 15.511719 10.519531 14.960938 11.3125 14.390625 11.84375 C 13.878906 12.316406 12.925781 12.878906 12.425781 13.003906 C 12.171875 13.070312 12.171875 13.070312 12.625 13.230469 C 13.84375 13.652344 14.933594 14.621094 15.460938 15.742188 C 15.636719 16.113281 15.800781 16.417969 15.828125 16.417969 C 15.859375 16.417969 15.925781 16.269531 15.980469 16.089844 C 16.304688 14.996094 17.511719 13.824219 18.890625 13.261719 L 19.363281 13.070312 L 19.035156 12.964844 C 17.746094 12.550781 16.34375 11.246094 15.988281 10.125 C 15.839844 9.660156 15.777344 9.636719 15.664062 10.007812 M 36.785156 12.855469 C 37.175781 12.871094 37.796875 12.871094 38.160156 12.855469 C 38.523438 12.839844 38.203125 12.824219 37.449219 12.824219 C 36.691406 12.824219 36.394531 12.839844 36.785156 12.855469 M 57.210938 13.742188 C 57.210938 14.144531 57.226562 14.308594 57.246094 14.109375 C 57.261719 13.90625 57.261719 13.574219 57.246094 13.375 C 57.226562 13.171875 57.210938 13.335938 57.210938 13.742188 M 57.871094 16.507812 L 57.222656 16.5625 L 57.84375 16.578125 C 58.183594 16.585938 58.484375 16.554688 58.515625 16.507812 C 58.542969 16.457031 58.554688 16.425781 58.539062 16.433594 C 58.527344 16.445312 58.222656 16.476562 57.871094 16.507812 M 72.785156 16.960938 C 72.761719 17.019531 72.753906 18.214844 72.765625 19.617188 L 72.789062 22.167969 L 72.832031 19.507812 C 72.855469 18.046875 72.863281 16.851562 72.851562 16.851562 C 72.835938 16.851562 72.808594 16.902344 72.785156 16.960938 M 58.929688 18.234375 C 58.929688 18.542969 58.945312 18.667969 58.964844 18.515625 C 58.984375 18.359375 58.984375 18.109375 58.964844 17.953125 C 58.945312 17.800781 58.929688 17.925781 58.929688 18.234375 M 4.667969 18.753906 C 4.667969 19.015625 4.683594 19.121094 4.703125 18.992188 C 4.722656 18.859375 4.722656 18.644531 4.703125 18.515625 C 4.683594 18.382812 4.667969 18.492188 4.667969 18.753906 M 10.8125 23.917969 C 11.535156 23.929688 12.714844 23.929688 13.433594 23.917969 C 14.15625 23.902344 13.566406 23.890625 12.125 23.890625 C 10.683594 23.890625 10.089844 23.902344 10.8125 23.917969 "/>
<path style=" stroke:none;fill-rule:evenodd;fill:rgb(78.431373%,90.196078%,78.823529%);fill-opacity:1;" d="M 16.375 4.925781 C 16.375 6.519531 16.386719 7.167969 16.402344 6.375 C 16.417969 5.578125 16.417969 4.273438 16.402344 3.476562 C 16.386719 2.683594 16.375 3.332031 16.375 4.925781 M 24.335938 2.707031 C 24.335938 2.730469 24.5 2.847656 24.707031 2.96875 C 24.910156 3.089844 25.289062 3.367188 25.542969 3.589844 L 26.011719 3.992188 L 25.527344 3.53125 C 25.101562 3.125 24.335938 2.597656 24.335938 2.707031 M 38.976562 3.199219 C 38.976562 3.457031 38.992188 3.566406 39.015625 3.433594 C 39.035156 3.304688 39.035156 3.089844 39.015625 2.960938 C 38.992188 2.828125 38.976562 2.9375 38.976562 3.199219 M 41.828125 3.261719 L 43.160156 3.289062 L 43.1875 4 L 43.21875 4.710938 L 43.214844 3.976562 L 43.207031 3.242188 L 41.855469 3.238281 L 40.5 3.234375 L 41.828125 3.261719 M 26.074219 4.199219 C 26.15625 4.296875 26.339844 4.585938 26.480469 4.84375 C 26.621094 5.101562 26.738281 5.277344 26.738281 5.226562 C 26.742188 5.082031 26.253906 4.277344 26.082031 4.144531 C 25.929688 4.027344 25.929688 4.027344 26.074219 4.199219 M 38.824219 8.816406 C 38.824219 11.039062 38.851562 12.84375 38.886719 12.820312 C 38.921875 12.796875 38.953125 10.996094 38.953125 8.816406 C 38.953125 6.632812 38.921875 4.832031 38.886719 4.808594 C 38.851562 4.789062 38.824219 6.589844 38.824219 8.816406 M 39.414062 5.917969 C 39.414062 6.539062 39.429688 6.777344 39.445312 6.457031 C 39.460938 6.132812 39.460938 5.628906 39.445312 5.332031 C 39.429688 5.039062 39.414062 5.300781 39.414062 5.917969 M 27.113281 7.214844 C 27.113281 7.5 27.128906 7.609375 27.148438 7.453125 C 27.167969 7.296875 27.167969 7.0625 27.148438 6.933594 C 27.128906 6.804688 27.113281 6.929688 27.113281 7.214844 M 43.183594 8.703125 C 43.171875 9.660156 43.195312 10.464844 43.230469 10.488281 C 43.265625 10.507812 43.285156 9.996094 43.273438 9.347656 C 43.230469 7.167969 43.199219 6.945312 43.183594 8.703125 M 26.96875 8.1875 C 26.9375 8.417969 26.777344 8.886719 26.617188 9.230469 C 26.453125 9.570312 26.339844 9.851562 26.363281 9.851562 C 26.386719 9.851562 26.539062 9.574219 26.699219 9.234375 C 26.96875 8.664062 27.164062 7.914062 27.066406 7.8125 C 27.042969 7.789062 27 7.960938 26.96875 8.1875 M 16.429688 8 C 16.421875 8.195312 16.675781 9.109375 16.722656 9.0625 C 16.738281 9.042969 16.679688 8.757812 16.589844 8.425781 C 16.503906 8.09375 16.429688 7.902344 16.429688 8 M 16.765625 9.21875 C 16.765625 9.535156 17.921875 10.933594 18.519531 11.332031 C 18.683594 11.441406 18.640625 11.382812 18.410156 11.183594 C 17.8125 10.660156 17.4375 10.230469 17.089844 9.660156 C 16.914062 9.367188 16.765625 9.167969 16.765625 9.21875 M 25.558594 10.6875 C 25.167969 11.089844 24.957031 11.34375 25.085938 11.246094 C 25.40625 11.015625 26.441406 9.90625 26.300781 9.949219 C 26.285156 9.953125 25.949219 10.285156 25.558594 10.6875 M 44.488281 11.796875 C 44.488281 12.273438 44.5 12.453125 44.519531 12.203125 C 44.535156 11.953125 44.535156 11.5625 44.519531 11.339844 C 44.5 11.117188 44.488281 11.320312 44.488281 11.796875 M 16.984375 11.667969 C 17.214844 11.90625 17.425781 12.097656 17.449219 12.097656 C 17.472656 12.097656 17.300781 11.90625 17.070312 11.667969 C 16.835938 11.429688 16.625 11.234375 16.601562 11.234375 C 16.578125 11.234375 16.75 11.429688 16.984375 11.667969 M 18.832031 11.539062 C 18.832031 11.625 19.894531 12.09375 20.207031 12.144531 C 20.417969 12.175781 20.363281 12.140625 20.035156 12.03125 C 19.773438 11.941406 19.398438 11.785156 19.195312 11.679688 C 18.996094 11.574219 18.832031 11.511719 18.832031 11.539062 M 21.390625 12.335938 C 21.589844 12.351562 21.917969 12.351562 22.121094 12.335938 C 22.320312 12.316406 22.15625 12.300781 21.753906 12.300781 C 21.351562 12.300781 21.1875 12.316406 21.390625 12.335938 M 22.484375 13.652344 C 20.886719 13.695312 20.425781 13.738281 20.078125 13.863281 C 17.800781 14.695312 16.429688 16.507812 16.425781 18.683594 C 16.421875 20.152344 16.859375 21.195312 17.917969 22.25 C 18.671875 23 19.164062 23.308594 20.089844 23.613281 C 20.929688 23.890625 22.5625 23.894531 23.429688 23.617188 C 24.976562 23.125 26.335938 21.867188 26.820312 20.476562 C 27.132812 19.589844 27.191406 18.703125 27.128906 16.050781 L 27.066406 13.566406 L 25.765625 13.585938 C 25.050781 13.59375 23.574219 13.625 22.484375 13.652344 M 14.992188 15.007812 C 15.03125 15.066406 15.195312 15.359375 15.355469 15.660156 C 15.515625 15.957031 15.648438 16.171875 15.648438 16.136719 C 15.652344 16.015625 15.242188 15.257812 15.078125 15.074219 C 14.992188 14.980469 14.949219 14.949219 14.992188 15.007812 M 76.636719 18.988281 L 76.613281 22.117188 L 75.21875 22.144531 L 73.820312 22.171875 L 75.21875 22.191406 C 76.277344 22.207031 76.628906 22.183594 76.660156 22.101562 C 76.683594 22.042969 76.691406 20.613281 76.679688 18.925781 L 76.65625 15.859375 L 76.636719 18.988281 M 57.21875 18.148438 C 57.21875 19.027344 57.230469 19.386719 57.246094 18.949219 C 57.261719 18.507812 57.261719 17.789062 57.246094 17.347656 C 57.230469 16.910156 57.21875 17.269531 57.21875 18.148438 M 69 16.960938 C 68.976562 17.019531 68.96875 18.214844 68.980469 19.617188 L 69.003906 22.167969 L 69.046875 19.507812 C 69.070312 18.046875 69.078125 16.851562 69.066406 16.851562 C 69.054688 16.851562 69.023438 16.902344 69 16.960938 M 69.949219 19.574219 L 69.949219 22.167969 L 71.371094 22.171875 L 72.789062 22.171875 L 71.390625 22.144531 L 69.996094 22.121094 L 69.972656 19.550781 L 69.945312 16.980469 L 69.949219 19.574219 M 61.773438 17.371094 C 61.78125 17.578125 61.808594 17.585938 62.40625 17.613281 L 63.027344 17.636719 L 63.015625 17.394531 C 63.007812 17.191406 63 17.183594 62.96875 17.347656 C 62.933594 17.527344 62.882812 17.542969 62.382812 17.542969 C 61.882812 17.542969 61.832031 17.527344 61.800781 17.347656 C 61.769531 17.179688 61.765625 17.183594 61.773438 17.371094 M 15.429688 21.042969 C 15.429688 22.421875 15.441406 22.972656 15.457031 22.269531 C 15.46875 21.566406 15.46875 20.4375 15.457031 19.761719 C 15.441406 19.089844 15.429688 19.664062 15.429688 21.042969 M 40.957031 19.875 C 40.957031 20.183594 40.972656 20.3125 40.992188 20.15625 C 41.011719 20.003906 41.011719 19.75 40.992188 19.59375 C 40.972656 19.441406 40.957031 19.566406 40.957031 19.875 M 58.503906 21 C 58.503906 21.453125 58.515625 21.636719 58.535156 21.410156 C 58.550781 21.183594 58.550781 20.816406 58.535156 20.589844 C 58.515625 20.363281 58.503906 20.546875 58.503906 21 M 66.878906 22.1875 C 67.273438 22.203125 67.890625 22.203125 68.257812 22.1875 C 68.621094 22.171875 68.300781 22.160156 67.542969 22.160156 C 66.785156 22.160156 66.488281 22.171875 66.878906 22.1875 "/>
<path style=" stroke:none;fill-rule:evenodd;fill:rgb(47.058824%,52.54902%,79.607843%);fill-opacity:1;" d="M 43.09375 3.992188 C 43.085938 4.40625 43.109375 4.761719 43.144531 4.78125 C 43.179688 4.804688 43.199219 4.585938 43.183594 4.292969 C 43.140625 3.339844 43.105469 3.226562 43.09375 3.992188 M 47.316406 4.558594 C 47.542969 4.574219 47.890625 4.574219 48.089844 4.558594 C 48.289062 4.539062 48.105469 4.523438 47.679688 4.523438 C 47.253906 4.523438 47.089844 4.539062 47.316406 4.558594 M 38.820312 8.816406 C 38.820312 11.023438 38.832031 11.929688 38.84375 10.824219 C 38.859375 9.71875 38.859375 7.910156 38.84375 6.804688 C 38.832031 5.699219 38.820312 6.605469 38.820312 8.816406 M 44.566406 5.488281 C 44.570312 5.773438 44.585938 5.878906 44.605469 5.722656 C 44.621094 5.570312 44.621094 5.335938 44.601562 5.207031 C 44.582031 5.074219 44.566406 5.203125 44.566406 5.488281 M 44.46875 6.628906 L 44.457031 6.90625 L 43.789062 6.929688 L 43.121094 6.957031 L 43.097656 8.675781 C 43.082031 9.867188 43.105469 10.425781 43.175781 10.511719 C 43.238281 10.589844 43.433594 10.625 43.757812 10.613281 L 44.242188 10.601562 L 43.722656 10.550781 L 43.207031 10.5 L 43.160156 7 L 43.8125 7 C 44.503906 7 44.589844 6.945312 44.515625 6.550781 C 44.488281 6.398438 44.476562 6.414062 44.46875 6.628906 M 39.832031 6.972656 L 40.238281 7.007812 L 40.265625 9.1875 L 40.289062 11.363281 L 40.289062 9.160156 L 40.285156 6.957031 L 39.855469 6.949219 L 39.425781 6.9375 L 39.832031 6.972656 M 55.316406 13.027344 C 55.683594 13.042969 56.265625 13.042969 56.605469 13.027344 C 56.945312 13.011719 56.644531 12.996094 55.933594 12.996094 C 55.226562 12.996094 54.945312 13.011719 55.316406 13.027344 M 9.285156 13.734375 C 7.1875 14.023438 5.375 15.582031 4.855469 17.542969 C 4.699219 18.136719 4.695312 19.433594 4.847656 20.007812 C 5.21875 21.40625 6.257812 22.644531 7.625 23.328125 C 8.597656 23.8125 8.933594 23.847656 12.316406 23.851562 L 15.390625 23.851562 L 15.390625 21.109375 C 15.386719 18.082031 15.332031 17.597656 14.886719 16.65625 C 13.9375 14.671875 11.546875 13.421875 9.285156 13.734375 M 41.640625 14.410156 C 42.054688 14.425781 42.730469 14.425781 43.144531 14.410156 C 43.558594 14.394531 43.21875 14.382812 42.390625 14.382812 C 41.5625 14.382812 41.226562 14.394531 41.640625 14.410156 M 46.109375 14.410156 C 46.476562 14.425781 47.078125 14.425781 47.445312 14.410156 C 47.808594 14.394531 47.511719 14.378906 46.777344 14.378906 C 46.042969 14.378906 45.742188 14.394531 46.109375 14.410156 M 54.109375 14.410156 L 53.65625 14.441406 L 53.675781 15.496094 L 53.691406 16.550781 L 53.746094 14.519531 L 54.125 14.519531 C 54.335938 14.519531 54.53125 14.480469 54.558594 14.433594 C 54.589844 14.382812 54.601562 14.351562 54.585938 14.363281 C 54.570312 14.371094 54.355469 14.390625 54.109375 14.410156 M 66.164062 14.453125 C 66.140625 14.511719 66.132812 16.253906 66.144531 18.320312 L 66.167969 22.082031 L 66.191406 18.257812 L 66.210938 14.4375 L 67.476562 14.410156 L 68.746094 14.382812 L 67.476562 14.363281 C 66.523438 14.351562 66.195312 14.371094 66.164062 14.453125 M 57.886719 14.496094 C 58.421875 14.519531 58.554688 14.554688 58.582031 14.671875 C 58.605469 14.78125 58.613281 14.773438 58.609375 14.648438 C 58.601562 14.492188 58.539062 14.476562 57.914062 14.46875 L 57.222656 14.464844 L 57.886719 14.496094 M 68.914062 16.960938 C 68.890625 17.019531 68.882812 18.214844 68.894531 19.617188 L 68.917969 22.167969 L 68.960938 19.507812 C 68.984375 18.046875 68.992188 16.851562 68.980469 16.851562 C 68.96875 16.851562 68.9375 16.902344 68.914062 16.960938 M 73.816406 19.53125 C 73.816406 20.980469 73.828125 21.574219 73.839844 20.847656 C 73.855469 20.125 73.855469 18.9375 73.839844 18.214844 C 73.828125 17.488281 73.816406 18.082031 73.816406 19.53125 M 65.359375 18.773438 L 65.351562 19.007812 L 63.523438 19.035156 L 61.695312 19.058594 L 63.527344 19.078125 C 65.464844 19.101562 65.511719 19.089844 65.410156 18.691406 C 65.382812 18.589844 65.367188 18.617188 65.359375 18.773438 M 53.511719 19.875 C 53.511719 20.136719 53.527344 20.246094 53.546875 20.113281 C 53.566406 19.984375 53.566406 19.769531 53.546875 19.640625 C 53.527344 19.507812 53.511719 19.613281 53.511719 19.875 M 57.546875 20.023438 C 57.675781 20.042969 57.890625 20.042969 58.019531 20.023438 C 58.148438 20.003906 58.042969 19.988281 57.785156 19.988281 C 57.523438 19.988281 57.417969 20.003906 57.546875 20.023438 M 58.414062 21.257812 C 58.414062 21.617188 58.429688 21.761719 58.449219 21.582031 C 58.464844 21.40625 58.464844 21.113281 58.449219 20.933594 C 58.429688 20.757812 58.414062 20.902344 58.414062 21.257812 "/>
<path style=" stroke:none;fill-rule:evenodd;fill:rgb(56.470588%,79.215686%,97.647059%);fill-opacity:1;" d="M 9.242188 2.160156 C 7.023438 2.46875 5.203125 4.117188 4.765625 6.222656 C 4.667969 6.695312 4.644531 7.429688 4.664062 9.570312 L 4.6875 12.316406 L 7.480469 12.335938 C 10.789062 12.363281 11.347656 12.300781 12.441406 11.753906 C 14.007812 10.976562 15.0625 9.535156 15.316406 7.832031 C 15.660156 5.492188 14.101562 3.144531 11.695312 2.382812 C 10.945312 2.148438 9.980469 2.058594 9.242188 2.160156 M 16.421875 4.910156 C 16.421875 7.457031 16.441406 7.820312 16.59375 8.417969 C 16.871094 9.507812 17.429688 10.363281 18.359375 11.121094 C 19.953125 12.425781 22.480469 12.648438 24.363281 11.648438 C 25.195312 11.203125 26.140625 10.214844 26.554688 9.351562 C 27.296875 7.816406 27.230469 6.117188 26.378906 4.65625 C 25.652344 3.414062 24.144531 2.414062 22.613281 2.167969 C 22.304688 2.117188 20.792969 2.074219 19.238281 2.074219 L 16.421875 2.074219 L 16.421875 4.910156 "/>
<path style=" stroke:none;fill-rule:evenodd;fill:rgb(100%,100%,100%);fill-opacity:1;" d="M 0 14 L 0 28 L 40.523438 27.976562 L 81.042969 27.957031 L 81.066406 13.976562 L 81.085938 0 L 0 0 L 0 14 M 0.0429688 14.042969 C 0.0429688 21.742188 0.0507812 24.878906 0.0664062 21.015625 C 0.078125 17.148438 0.078125 10.847656 0.0664062 7.015625 C 0.0507812 3.179688 0.0429688 6.34375 0.0429688 14.042969 M 36.488281 1.992188 C 36.039062 2.214844 35.855469 2.578125 35.855469 3.25 C 35.855469 4.1875 36.300781 4.535156 37.492188 4.535156 C 38.597656 4.53125 39.078125 4.074219 39.015625 3.089844 C 38.960938 2.203125 38.480469 1.816406 37.449219 1.816406 C 37.011719 1.816406 36.746094 1.863281 36.488281 1.992188 M 8.769531 2.207031 C 6.835938 2.625 5.113281 4.296875 4.738281 6.117188 C 4.679688 6.398438 4.644531 7.707031 4.644531 9.46875 L 4.644531 12.359375 L 7.632812 12.355469 C 11.046875 12.355469 11.402344 12.3125 12.550781 11.742188 C 13.902344 11.070312 15.003906 9.664062 15.296875 8.226562 C 15.949219 5.046875 13.355469 2.054688 9.972656 2.082031 C 9.621094 2.085938 9.078125 2.140625 8.769531 2.207031 M 16.339844 4.859375 C 16.339844 6.941406 16.371094 7.796875 16.464844 8.230469 C 16.96875 10.621094 19.214844 12.363281 21.785156 12.355469 C 24.382812 12.347656 26.761719 10.355469 27.097656 7.894531 C 27.457031 5.304688 25.792969 2.917969 23.152344 2.242188 C 22.566406 2.089844 22.183594 2.074219 19.417969 2.074219 L 16.335938 2.074219 L 16.339844 4.859375 M 40.460938 3.648438 C 40.320312 4.835938 40.367188 4.742188 39.871094 4.769531 L 39.425781 4.796875 L 39.378906 7 L 40.230469 7 L 40.285156 11.796875 L 40.519531 12.199219 C 40.890625 12.832031 41.332031 13.007812 42.519531 13 C 43.039062 12.996094 43.6875 12.964844 43.957031 12.929688 C 44.425781 12.867188 44.453125 12.851562 44.5 12.589844 C 44.527344 12.4375 44.539062 11.90625 44.523438 11.40625 L 44.5 10.5 L 43.292969 10.5 L 43.269531 8.757812 L 43.25 7.011719 L 43.933594 6.984375 L 44.621094 6.957031 L 44.671875 7.433594 C 44.703125 7.695312 44.761719 8.023438 44.808594 8.167969 C 45.042969 8.894531 45.800781 9.527344 47.144531 10.113281 C 47.617188 10.320312 47.808594 10.445312 47.789062 10.539062 C 47.75 10.734375 47.160156 10.707031 46.152344 10.460938 C 45.691406 10.351562 45.292969 10.277344 45.269531 10.300781 C 45.246094 10.324219 45.175781 10.859375 45.117188 11.488281 C 45.015625 12.546875 45.015625 12.636719 45.15625 12.710938 C 45.238281 12.753906 45.816406 12.855469 46.445312 12.933594 C 48.535156 13.199219 49.597656 12.863281 50.183594 11.753906 C 50.433594 11.285156 50.417969 9.597656 50.160156 9.113281 C 49.875 8.578125 49.28125 8.085938 48.441406 7.695312 C 47.433594 7.222656 47.425781 7.21875 47.394531 7.054688 C 47.355469 6.855469 47.804688 6.867188 48.90625 7.09375 C 49.390625 7.195312 49.839844 7.257812 49.902344 7.234375 C 49.980469 7.203125 50.050781 6.859375 50.121094 6.164062 C 50.179688 5.601562 50.234375 5.066406 50.242188 4.976562 C 50.292969 4.484375 46.9375 4.277344 46.066406 4.71875 C 45.3125 5.101562 44.847656 5.695312 44.710938 6.457031 C 44.652344 6.777344 44.640625 6.640625 44.652344 5.832031 L 44.671875 4.796875 L 43.964844 4.769531 L 43.257812 4.746094 L 43.234375 3.992188 L 43.207031 3.242188 L 41.863281 3.21875 L 40.515625 3.191406 L 40.460938 3.648438 M 35.964844 8.792969 L 35.984375 12.832031 L 38.910156 12.832031 L 38.910156 4.796875 L 35.941406 4.75 L 35.964844 8.792969 M 15.523438 10.171875 C 15.269531 10.753906 14.714844 11.519531 14.246094 11.925781 C 13.84375 12.273438 12.972656 12.785156 12.597656 12.894531 C 12.097656 13.035156 12.066406 13.105469 12.4375 13.222656 C 13.105469 13.4375 13.957031 13.957031 14.484375 14.46875 C 14.898438 14.875 15.113281 15.179688 15.417969 15.808594 C 15.726562 16.441406 15.828125 16.585938 15.871094 16.457031 C 15.90625 16.367188 16 16.128906 16.082031 15.929688 C 16.574219 14.769531 17.847656 13.617188 19.023438 13.269531 C 19.207031 13.214844 19.351562 13.132812 19.339844 13.089844 C 19.332031 13.042969 19.09375 12.921875 18.808594 12.820312 C 17.734375 12.429688 16.707031 11.488281 16.207031 10.441406 C 16.042969 10.097656 15.90625 9.765625 15.90625 9.703125 C 15.90625 9.445312 15.757812 9.628906 15.523438 10.171875 M 54.65625 13.199219 C 54.632812 13.332031 54.589844 13.660156 54.558594 13.933594 L 54.503906 14.433594 L 53.65625 14.433594 L 53.65625 16.59375 L 54.429688 16.59375 L 54.429688 18.84375 C 54.429688 20.742188 54.453125 21.136719 54.570312 21.371094 C 54.820312 21.875 55.109375 22.101562 55.6875 22.257812 C 56.175781 22.390625 56.359375 22.398438 57.328125 22.308594 C 57.925781 22.253906 58.4375 22.1875 58.464844 22.160156 C 58.492188 22.132812 58.511719 21.617188 58.511719 21.015625 L 58.515625 19.917969 L 57.308594 19.917969 L 57.289062 18.257812 L 57.265625 16.59375 L 58.539062 16.59375 L 58.589844 16.09375 C 58.617188 15.824219 58.652344 15.347656 58.664062 15.035156 L 58.6875 14.476562 L 57.976562 14.449219 L 57.265625 14.425781 L 57.265625 12.964844 L 54.703125 12.964844 L 54.65625 13.199219 M 22.484375 13.652344 C 20.886719 13.695312 20.425781 13.738281 20.078125 13.863281 C 17.800781 14.695312 16.429688 16.507812 16.425781 18.683594 C 16.421875 20.152344 16.859375 21.195312 17.917969 22.25 C 18.671875 23 19.164062 23.308594 20.089844 23.613281 C 20.929688 23.890625 22.5625 23.894531 23.429688 23.617188 C 24.976562 23.125 26.335938 21.867188 26.820312 20.476562 C 27.132812 19.589844 27.191406 18.703125 27.128906 16.050781 L 27.066406 13.566406 L 25.765625 13.585938 C 25.050781 13.59375 23.574219 13.625 22.484375 13.652344 M 8.683594 13.789062 C 6.320312 14.410156 4.648438 16.472656 4.644531 18.769531 C 4.644531 19.585938 4.777344 20.15625 5.175781 20.992188 C 5.835938 22.378906 7.070312 23.347656 8.71875 23.765625 C 9.335938 23.921875 9.683594 23.9375 12.445312 23.9375 L 15.492188 23.9375 L 15.457031 20.976562 C 15.414062 17.734375 15.382812 17.472656 14.867188 16.5 C 14.152344 15.15625 12.9375 14.203125 11.457031 13.820312 C 10.675781 13.621094 9.382812 13.605469 8.683594 13.789062 M 37.027344 14.308594 C 36.464844 14.492188 35.738281 15.210938 35.589844 15.738281 C 35.53125 15.945312 35.488281 16.414062 35.492188 16.78125 C 35.503906 17.980469 35.972656 18.625 37.296875 19.269531 C 38.414062 19.816406 38.480469 19.855469 38.480469 19.980469 C 38.480469 20.144531 37.671875 20.097656 36.804688 19.882812 C 36.410156 19.785156 36.070312 19.71875 36.050781 19.738281 C 36.03125 19.757812 35.96875 20.265625 35.910156 20.867188 C 35.816406 21.863281 35.820312 21.972656 35.945312 22.039062 C 36.023438 22.082031 36.566406 22.179688 37.148438 22.261719 C 38.84375 22.492188 39.898438 22.269531 40.484375 21.550781 C 40.835938 21.125 41.054688 20.292969 40.988281 19.640625 C 40.863281 18.382812 40.511719 17.945312 39.070312 17.238281 C 38.007812 16.714844 37.832031 16.503906 38.457031 16.507812 C 38.660156 16.507812 39.191406 16.585938 39.636719 16.675781 C 40.085938 16.769531 40.480469 16.820312 40.511719 16.785156 C 40.574219 16.71875 40.84375 14.996094 40.84375 14.660156 C 40.84375 14.492188 40.773438 14.445312 40.390625 14.351562 C 39.664062 14.171875 37.53125 14.144531 37.027344 14.308594 M 49.652344 14.324219 C 48.648438 14.6875 48.066406 15.546875 48.066406 16.671875 C 48.066406 17.949219 48.601562 18.640625 50.183594 19.414062 C 50.738281 19.683594 51.15625 19.9375 51.140625 19.992188 C 51.070312 20.199219 50.59375 20.148438 48.785156 19.730469 C 48.609375 19.6875 48.597656 19.722656 48.542969 20.625 C 48.511719 21.140625 48.46875 21.664062 48.445312 21.789062 C 48.40625 22 48.429688 22.023438 48.816406 22.109375 C 49.042969 22.160156 49.605469 22.25 50.066406 22.304688 C 51.640625 22.492188 52.722656 22.175781 53.226562 21.375 C 53.515625 20.917969 53.605469 20.484375 53.589844 19.667969 C 53.5625 18.476562 52.976562 17.773438 51.445312 17.113281 C 50.253906 16.597656 50.53125 16.363281 51.996094 16.640625 C 53.257812 16.878906 53.164062 16.910156 53.28125 16.160156 C 53.335938 15.804688 53.394531 15.277344 53.410156 14.992188 L 53.441406 14.476562 L 53.011719 14.363281 C 52.773438 14.300781 52.019531 14.230469 51.335938 14.207031 C 50.273438 14.171875 50.023438 14.191406 49.652344 14.324219 M 61.160156 14.296875 C 59.871094 14.703125 59.1875 15.660156 58.976562 17.355469 C 58.726562 19.371094 59.300781 21.058594 60.5 21.832031 C 61.230469 22.300781 62.023438 22.433594 63.273438 22.300781 C 64.546875 22.164062 65.226562 21.960938 65.203125 21.730469 C 65.191406 21.636719 65.144531 21.175781 65.09375 20.703125 C 65.042969 20.230469 64.984375 19.828125 64.964844 19.808594 C 64.945312 19.785156 64.648438 19.832031 64.300781 19.910156 C 62.78125 20.246094 62.207031 20.1875 61.960938 19.660156 C 61.683594 19.078125 61.628906 19.097656 63.625 19.097656 C 64.699219 19.097656 65.445312 19.066406 65.476562 19.015625 C 65.507812 18.96875 65.53125 18.355469 65.539062 17.652344 C 65.546875 16.285156 65.453125 15.828125 65.050781 15.230469 C 64.769531 14.816406 64.21875 14.433594 63.695312 14.296875 C 63.128906 14.144531 61.644531 14.144531 61.160156 14.296875 M 69.933594 14.296875 C 69.738281 14.359375 69.433594 14.5 69.261719 14.605469 C 69 14.769531 68.929688 14.78125 68.867188 14.683594 C 68.828125 14.617188 68.792969 14.511719 68.792969 14.453125 C 68.789062 14.371094 68.464844 14.34375 67.457031 14.34375 L 66.121094 14.34375 L 66.144531 18.257812 L 66.167969 22.167969 L 67.414062 22.191406 C 68.101562 22.207031 68.746094 22.195312 68.855469 22.167969 L 69.046875 22.121094 L 69.046875 16.933594 L 69.277344 16.847656 C 69.40625 16.796875 69.589844 16.769531 69.6875 16.78125 C 69.859375 16.808594 69.867188 16.863281 69.90625 19.488281 L 69.949219 22.167969 L 72.789062 22.167969 L 72.875 16.894531 L 73.191406 16.816406 C 73.78125 16.671875 73.773438 16.632812 73.796875 19.5625 L 73.820312 22.167969 L 76.65625 22.167969 L 76.679688 19.183594 C 76.707031 15.996094 76.652344 15.269531 76.34375 14.820312 C 76.03125 14.363281 75.71875 14.226562 74.878906 14.1875 C 74.027344 14.148438 73.578125 14.265625 72.972656 14.683594 L 72.589844 14.945312 L 72.445312 14.726562 C 72.214844 14.371094 71.679688 14.175781 70.941406 14.179688 C 70.585938 14.183594 70.132812 14.234375 69.933594 14.296875 M 40.929688 14.527344 C 40.929688 14.625 41.03125 15.082031 41.152344 15.542969 C 41.371094 16.363281 41.703125 17.648438 42.433594 20.515625 C 42.640625 21.316406 42.789062 22.023438 42.765625 22.085938 C 42.703125 22.25 42.257812 22.382812 41.773438 22.382812 L 41.351562 22.382812 L 41.410156 23.050781 C 41.445312 23.421875 41.492188 23.898438 41.523438 24.109375 L 41.578125 24.5 L 42.8125 24.523438 C 44.679688 24.558594 45.28125 24.328125 45.804688 23.367188 C 46.035156 22.945312 46.300781 22.007812 47.121094 18.726562 C 47.6875 16.46875 48.152344 14.558594 48.152344 14.480469 C 48.152344 14.359375 47.992188 14.34375 46.761719 14.363281 L 45.371094 14.390625 L 45.132812 15.859375 C 44.734375 18.320312 44.695312 18.53125 44.628906 18.65625 C 44.589844 18.730469 44.539062 18.574219 44.503906 18.269531 C 44.46875 17.988281 44.390625 17.449219 44.328125 17.066406 C 44.265625 16.6875 44.144531 15.917969 44.0625 15.359375 L 43.90625 14.34375 L 42.417969 14.34375 C 40.964844 14.34375 40.929688 14.351562 40.929688 14.527344 M 61.957031 16.785156 C 61.886719 16.890625 61.824219 17.105469 61.824219 17.261719 L 61.824219 17.542969 L 62.941406 17.542969 L 62.941406 17.242188 C 62.941406 16.664062 62.261719 16.351562 61.957031 16.785156 "/>
<path style=" stroke:none;fill-rule:evenodd;fill:rgb(2.745098%,2.745098%,2.745098%);fill-opacity:1;" d="M 36.632812 2.015625 C 36.460938 2.074219 36.25 2.246094 36.132812 2.417969 C 35.957031 2.679688 35.933594 2.804688 35.960938 3.300781 C 35.996094 3.972656 36.195312 4.261719 36.710938 4.40625 C 37.195312 4.542969 37.925781 4.507812 38.316406 4.328125 C 39.179688 3.933594 39.140625 2.394531 38.257812 2.039062 C 37.859375 1.878906 37.058594 1.867188 36.632812 2.015625 M 40.546875 3.738281 C 40.515625 3.988281 40.472656 4.335938 40.445312 4.515625 L 40.398438 4.839844 L 39.46875 4.839844 L 39.46875 6.902344 L 39.875 6.929688 L 40.285156 6.957031 L 40.328125 9.375 C 40.375 12.035156 40.386719 12.101562 40.929688 12.5625 C 41.351562 12.917969 41.78125 12.992188 43.074219 12.929688 C 43.710938 12.902344 44.265625 12.839844 44.308594 12.796875 C 44.351562 12.753906 44.40625 12.234375 44.433594 11.644531 L 44.480469 10.566406 L 43.882812 10.605469 C 43.421875 10.640625 43.265625 10.621094 43.183594 10.519531 C 43.105469 10.425781 43.082031 9.945312 43.097656 8.675781 L 43.121094 6.957031 L 43.78125 6.933594 L 44.441406 6.90625 L 44.488281 6.371094 C 44.515625 6.074219 44.550781 5.609375 44.566406 5.339844 L 44.597656 4.847656 L 43.859375 4.820312 L 43.121094 4.796875 L 43.097656 4.039062 L 43.074219 3.285156 L 40.601562 3.285156 L 40.546875 3.738281 M 46.363281 4.707031 C 45.347656 5.027344 44.714844 5.960938 44.714844 7.136719 C 44.710938 8.402344 45.25 9.089844 46.839844 9.867188 C 47.640625 10.257812 47.894531 10.421875 47.894531 10.546875 C 47.894531 10.820312 47.515625 10.84375 46.527344 10.628906 C 45.152344 10.332031 45.285156 10.265625 45.207031 11.320312 C 45.105469 12.671875 45.09375 12.632812 45.703125 12.765625 C 46.535156 12.941406 48.058594 13.003906 48.5625 12.882812 C 49.230469 12.71875 49.703125 12.375 50 11.832031 C 50.242188 11.394531 50.257812 11.304688 50.257812 10.457031 C 50.257812 9.660156 50.234375 9.496094 50.046875 9.128906 C 49.757812 8.566406 49.308594 8.210938 48.214844 7.691406 C 47.714844 7.453125 47.28125 7.222656 47.253906 7.179688 C 47.226562 7.136719 47.269531 7.035156 47.347656 6.957031 C 47.511719 6.792969 48.007812 6.824219 49.179688 7.082031 L 49.871094 7.230469 L 49.910156 6.964844 C 50.035156 6.164062 50.152344 4.917969 50.109375 4.875 C 50.082031 4.851562 49.757812 4.773438 49.386719 4.707031 C 48.527344 4.554688 46.855469 4.554688 46.363281 4.707031 M 36.027344 8.816406 L 36.027344 12.789062 L 38.78125 12.789062 L 38.78125 4.839844 L 36.027344 4.839844 L 36.027344 8.816406 M 54.664062 13.695312 C 54.636719 14.050781 54.589844 14.378906 54.5625 14.429688 C 54.53125 14.476562 54.332031 14.519531 54.125 14.519531 L 53.742188 14.519531 L 53.742188 16.507812 L 54.414062 16.507812 L 54.445312 18.730469 C 54.472656 20.777344 54.488281 20.988281 54.65625 21.355469 C 55.015625 22.140625 55.582031 22.339844 57.195312 22.25 C 57.804688 22.214844 58.316406 22.164062 58.335938 22.132812 C 58.351562 22.105469 58.378906 21.613281 58.398438 21.042969 L 58.429688 20.007812 L 57.980469 20.035156 C 57.136719 20.089844 57.179688 20.195312 57.179688 18.230469 L 57.179688 16.507812 L 58.445312 16.507812 L 58.5 15.921875 C 58.53125 15.601562 58.554688 15.15625 58.558594 14.929688 L 58.558594 14.519531 L 57.179688 14.519531 L 57.179688 13.050781 L 54.710938 13.050781 L 54.664062 13.695312 M 37.652344 14.261719 C 36.679688 14.378906 35.910156 14.976562 35.675781 15.796875 C 35.519531 16.339844 35.542969 17.28125 35.722656 17.757812 C 35.929688 18.308594 36.574219 18.847656 37.652344 19.382812 C 38.613281 19.855469 38.816406 20.078125 38.386719 20.1875 C 38.191406 20.238281 37.453125 20.109375 36.234375 19.816406 C 36.0625 19.777344 36.050781 19.816406 35.992188 20.832031 C 35.957031 21.410156 35.960938 21.914062 36 21.949219 C 36.167969 22.097656 37.269531 22.246094 38.226562 22.25 C 39.214844 22.253906 39.289062 22.242188 39.773438 21.992188 C 40.148438 21.800781 40.339844 21.632812 40.515625 21.34375 C 40.828125 20.832031 40.960938 19.992188 40.835938 19.304688 C 40.652344 18.292969 40.214844 17.839844 38.738281 17.152344 C 38.289062 16.941406 37.921875 16.738281 37.921875 16.699219 C 37.921875 16.546875 38.140625 16.417969 38.402344 16.417969 C 38.558594 16.417969 39.078125 16.5 39.5625 16.59375 C 40.042969 16.691406 40.449219 16.757812 40.460938 16.746094 C 40.496094 16.707031 40.75 14.566406 40.722656 14.539062 C 40.707031 14.527344 40.429688 14.460938 40.105469 14.394531 C 39.359375 14.246094 38.28125 14.1875 37.652344 14.261719 M 50.246094 14.265625 C 48.871094 14.441406 48.078125 15.445312 48.171875 16.882812 C 48.246094 18.054688 48.6875 18.589844 50.207031 19.34375 C 50.75 19.613281 51.210938 19.882812 51.226562 19.941406 C 51.246094 20 51.160156 20.09375 51.039062 20.148438 C 50.855469 20.230469 50.652344 20.214844 49.9375 20.0625 C 49.453125 19.960938 48.972656 19.851562 48.871094 19.824219 C 48.699219 19.777344 48.683594 19.8125 48.636719 20.367188 C 48.609375 20.691406 48.574219 21.1875 48.5625 21.472656 L 48.539062 21.988281 L 49.054688 22.101562 C 49.339844 22.164062 50.09375 22.222656 50.734375 22.230469 C 52.007812 22.246094 52.351562 22.160156 52.824219 21.707031 C 53.320312 21.238281 53.441406 20.875 53.441406 19.875 C 53.441406 19.109375 53.410156 18.914062 53.253906 18.617188 C 52.917969 17.984375 52.234375 17.5 50.96875 16.988281 C 50.613281 16.847656 50.46875 16.617188 50.65625 16.5 C 50.84375 16.378906 51.308594 16.40625 52.1875 16.59375 C 52.636719 16.6875 53.027344 16.738281 53.0625 16.703125 C 53.09375 16.664062 53.175781 16.160156 53.242188 15.582031 L 53.359375 14.53125 L 53.007812 14.441406 C 52.664062 14.351562 52.148438 14.292969 51.226562 14.226562 C 50.980469 14.210938 50.539062 14.226562 50.246094 14.265625 M 61.78125 14.261719 C 60.417969 14.429688 59.644531 15.097656 59.222656 16.460938 C 58.953125 17.339844 58.960938 19.152344 59.234375 19.964844 C 59.597656 21.027344 60.246094 21.746094 61.15625 22.097656 C 61.679688 22.300781 63.363281 22.292969 64.277344 22.089844 C 64.652344 22.003906 64.996094 21.902344 65.035156 21.863281 C 65.113281 21.792969 64.925781 19.875 64.839844 19.878906 C 64.8125 19.878906 64.410156 19.957031 63.945312 20.050781 C 62.929688 20.257812 62.585938 20.265625 62.25 20.089844 C 61.96875 19.941406 61.738281 19.5625 61.738281 19.234375 L 61.738281 19.011719 L 65.332031 19.011719 L 65.386719 18.644531 C 65.460938 18.144531 65.460938 16.777344 65.386719 16.367188 C 65.289062 15.808594 64.929688 15.144531 64.550781 14.820312 C 63.992188 14.339844 62.917969 14.125 61.78125 14.261719 M 70.464844 14.261719 C 69.972656 14.332031 69.496094 14.519531 69.125 14.785156 L 68.867188 14.96875 L 68.765625 14.699219 L 68.667969 14.433594 L 66.210938 14.433594 L 66.210938 22.125 L 68.875 22.125 L 68.894531 19.507812 L 68.917969 16.894531 L 69.285156 16.765625 C 69.96875 16.53125 69.949219 16.453125 69.972656 19.476562 L 69.996094 22.125 L 72.746094 22.125 L 72.746094 16.929688 L 73.042969 16.804688 C 73.425781 16.644531 73.558594 16.648438 73.726562 16.816406 C 73.84375 16.933594 73.863281 17.300781 73.863281 19.539062 L 73.863281 22.128906 L 75.21875 22.105469 L 76.570312 22.082031 L 76.570312 18.882812 C 76.570312 15.457031 76.539062 15.183594 76.136719 14.699219 C 75.859375 14.367188 75.453125 14.238281 74.691406 14.242188 C 73.992188 14.246094 73.515625 14.394531 72.953125 14.78125 C 72.578125 15.042969 72.554688 15.046875 72.441406 14.894531 C 72.375 14.804688 72.320312 14.707031 72.316406 14.671875 C 72.3125 14.550781 71.667969 14.285156 71.285156 14.242188 C 71.070312 14.21875 70.703125 14.226562 70.464844 14.261719 M 41.363281 16.007812 C 41.585938 16.875 42.003906 18.507812 42.292969 19.632812 C 42.585938 20.757812 42.820312 21.789062 42.820312 21.925781 C 42.820312 22.300781 42.679688 22.382812 42.03125 22.382812 L 41.445312 22.382812 L 41.453125 22.707031 C 41.457031 22.886719 41.507812 23.363281 41.5625 23.765625 L 41.664062 24.5 L 42.78125 24.492188 C 43.394531 24.484375 44.113281 24.433594 44.378906 24.378906 C 44.988281 24.25 45.480469 23.84375 45.78125 23.222656 C 45.945312 22.882812 48.066406 14.773438 48.066406 14.484375 C 48.066406 14.457031 47.476562 14.433594 46.753906 14.433594 L 45.445312 14.433594 L 45.0625 16.769531 C 44.851562 18.054688 44.652344 19.128906 44.613281 19.148438 C 44.53125 19.203125 44.492188 19.035156 44.324219 17.863281 C 44.253906 17.351562 44.117188 16.425781 44.023438 15.800781 C 43.929688 15.179688 43.851562 14.617188 43.851562 14.550781 C 43.851562 14.453125 43.578125 14.433594 42.40625 14.433594 L 40.957031 14.433594 L 41.363281 16.007812 M 62.027344 16.589844 C 61.835938 16.667969 61.652344 17.082031 61.652344 17.425781 C 61.652344 17.621094 61.675781 17.628906 62.339844 17.628906 L 63.027344 17.628906 L 63.027344 17.292969 C 63.027344 17.101562 62.964844 16.878906 62.878906 16.773438 C 62.703125 16.566406 62.296875 16.476562 62.027344 16.589844 "/>
</g>
</svg>
