<?xml version="1.0" encoding="UTF-8"?>
<svg xmlns="http://www.w3.org/2000/svg" xmlns:xlink="http://www.w3.org/1999/xlink" width="70px" height="21px" viewBox="0 0 68 21" version="1.1">
<g id="surface1">
<path style=" stroke:none;fill-rule:evenodd;fill:rgb(12.941176%,58.823529%,95.294118%);fill-opacity:1;" d="M 9.800781 6.320312 C 6.601562 10.085938 6.492188 10.242188 6.203125 11.378906 C 6.039062 12.019531 6.039062 13.261719 6.203125 13.90625 C 6.421875 14.773438 6.875 15.589844 7.480469 16.207031 C 8.308594 17.050781 9.140625 17.367188 10.292969 17.28125 C 11.4375 17.191406 11.972656 16.769531 14.027344 14.320312 C 15.28125 12.828125 16.011719 11.984375 16.355469 11.625 L 16.605469 11.367188 L 16.582031 8.085938 L 16.554688 4.804688 L 15.082031 4.753906 C 14.273438 4.726562 13.078125 4.6875 12.429688 4.664062 L 11.25 4.621094 L 9.800781 6.320312 "/>
<path style=" stroke:none;fill-rule:evenodd;fill:rgb(56.470588%,79.215686%,97.647059%);fill-opacity:1;" d="M 38.1875 4.515625 C 39.070312 4.527344 40.496094 4.527344 41.351562 4.515625 C 42.207031 4.5 41.484375 4.488281 39.742188 4.488281 C 38.003906 4.488281 37.304688 4.5 38.1875 4.515625 M 12.421875 4.683594 C 12.640625 4.699219 12.996094 4.699219 13.214844 4.683594 C 13.429688 4.664062 13.253906 4.648438 12.816406 4.648438 C 12.382812 4.648438 12.203125 4.664062 12.421875 4.683594 M 29.054688 4.738281 C 29 4.804688 28.964844 5.023438 28.980469 5.222656 L 29.007812 5.585938 L 29.941406 5.589844 L 30.878906 5.59375 L 29.964844 5.566406 L 29.046875 5.539062 L 29.046875 5.167969 C 29.046875 4.902344 29.089844 4.773438 29.195312 4.710938 C 29.273438 4.664062 29.296875 4.625 29.246094 4.621094 C 29.195312 4.621094 29.105469 4.675781 29.054688 4.738281 M 33.167969 10.753906 L 33.167969 16.925781 L 34.949219 16.972656 L 34.980469 17.347656 L 35.015625 17.726562 L 35.007812 17.324219 L 35 16.925781 L 33.210938 16.878906 L 33.1875 10.726562 L 33.167969 4.578125 L 33.167969 10.753906 M 15.832031 4.765625 L 16.554688 4.792969 L 16.582031 8.085938 L 16.605469 11.378906 L 16.390625 11.589844 C 16.273438 11.707031 16.246094 11.75 16.328125 11.683594 C 16.472656 11.570312 16.480469 11.6875 16.480469 14.636719 L 16.480469 17.707031 L 17.417969 17.757812 C 17.929688 17.785156 19.15625 17.824219 20.140625 17.847656 L 21.929688 17.894531 L 22.441406 17.285156 C 22.722656 16.949219 23.527344 15.996094 24.230469 15.167969 C 26.164062 12.894531 26.203125 12.847656 26.503906 12.304688 C 26.894531 11.609375 27.066406 10.871094 27.066406 9.90625 C 27.070312 8.441406 26.59375 7.195312 25.683594 6.277344 C 25.097656 5.6875 24.453125 5.347656 23.632812 5.203125 C 23.140625 5.113281 22.984375 5.117188 22.457031 5.246094 C 21.378906 5.511719 21.09375 5.761719 18.929688 8.316406 C 18.207031 9.171875 17.410156 10.109375 17.152344 10.402344 L 16.6875 10.933594 L 16.644531 7.839844 L 16.605469 4.746094 L 15.855469 4.742188 L 15.105469 4.734375 L 15.832031 4.765625 M 53.828125 5.519531 C 53.980469 5.539062 54.222656 5.539062 54.371094 5.519531 C 54.519531 5.503906 54.398438 5.488281 54.101562 5.488281 C 53.804688 5.488281 53.679688 5.503906 53.828125 5.519531 M 9.941406 6.070312 C 9.40625 6.660156 9.203125 6.910156 9.292969 6.859375 C 9.34375 6.828125 9.582031 6.578125 9.820312 6.300781 C 10.273438 5.769531 10.363281 5.601562 9.941406 6.070312 M 40.304688 5.941406 L 40.78125 5.972656 L 40.804688 11.742188 L 40.824219 17.515625 L 40.847656 11.695312 L 40.867188 5.878906 L 39.828125 5.910156 L 40.304688 5.941406 M 43.152344 5.984375 C 43.128906 6.042969 43.121094 8.339844 43.132812 11.089844 L 43.15625 16.085938 L 43.175781 11.03125 L 43.195312 5.972656 L 44.070312 5.910156 L 43.632812 5.894531 C 43.34375 5.886719 43.179688 5.917969 43.152344 5.984375 M 52.046875 7.433594 C 52.046875 7.710938 52.0625 7.8125 52.078125 7.664062 C 52.097656 7.511719 52.097656 7.285156 52.078125 7.160156 C 52.058594 7.035156 52.042969 7.15625 52.046875 7.433594 M 7.984375 8.378906 C 7.605469 8.828125 7.222656 9.28125 7.128906 9.386719 C 7.039062 9.492188 6.984375 9.574219 7.011719 9.574219 C 7.035156 9.574219 7.4375 9.121094 7.902344 8.566406 C 8.367188 8.011719 8.730469 7.558594 8.710938 7.558594 C 8.6875 7.558594 8.363281 7.929688 7.984375 8.378906 M 6.019531 12.683594 C 6.019531 13.03125 6.035156 13.171875 6.054688 13 C 6.070312 12.824219 6.070312 12.542969 6.054688 12.367188 C 6.035156 12.195312 6.019531 12.335938 6.019531 12.683594 M 57.039062 15.160156 C 57.039062 15.394531 57.054688 15.476562 57.074219 15.351562 C 57.09375 15.222656 57.089844 15.03125 57.070312 14.929688 C 57.050781 14.828125 57.035156 14.929688 57.039062 15.160156 M 12.652344 15.917969 C 12.449219 16.125 12.300781 16.296875 12.324219 16.296875 C 12.347656 16.296875 12.53125 16.125 12.734375 15.917969 C 12.9375 15.710938 13.082031 15.539062 13.058594 15.539062 C 13.039062 15.539062 12.851562 15.710938 12.652344 15.917969 M 9.253906 17.316406 C 9.511719 17.390625 10.492188 17.390625 10.671875 17.320312 C 10.75 17.289062 10.417969 17.261719 9.9375 17.261719 C 9.457031 17.261719 9.148438 17.285156 9.253906 17.316406 M 57.261719 17.851562 C 57.058594 17.960938 56.917969 18.054688 56.953125 18.054688 C 57.042969 18.0625 57.679688 17.730469 57.679688 17.679688 C 57.679688 17.625 57.683594 17.625 57.261719 17.851562 "/>
<path style=" stroke:none;fill-rule:evenodd;fill:rgb(20.392157%,26.666667%,29.411765%);fill-opacity:1;" d="M 54.140625 4.207031 C 52.085938 4.457031 50.679688 5.234375 50.085938 6.449219 C 49.839844 6.960938 49.8125 7.078125 49.816406 7.769531 C 49.820312 8.738281 50.03125 9.304688 50.632812 9.96875 C 51.1875 10.585938 51.992188 11.109375 53.230469 11.671875 C 55.660156 12.765625 56.617188 13.488281 56.976562 14.507812 C 57.316406 15.464844 56.871094 16.445312 55.875 16.9375 C 54.742188 17.496094 53.632812 17.121094 51.378906 15.414062 L 50.445312 14.707031 L 49.898438 15.347656 C 49.234375 16.132812 49.191406 16.378906 49.652344 16.832031 C 50.046875 17.21875 51.304688 17.839844 52.207031 18.097656 C 54.097656 18.636719 55.894531 18.546875 57.285156 17.839844 C 58.667969 17.136719 59.414062 15.828125 59.324219 14.265625 C 59.234375 12.699219 58.296875 11.6875 55.855469 10.527344 C 53.636719 9.46875 53.164062 9.207031 52.726562 8.804688 C 52.195312 8.316406 52.019531 7.964844 52.019531 7.398438 C 52.019531 6.644531 52.375 6.054688 53.058594 5.683594 C 53.339844 5.53125 53.523438 5.503906 54.183594 5.511719 C 55.007812 5.519531 55.554688 5.667969 56.304688 6.089844 C 56.488281 6.191406 56.925781 6.429688 57.273438 6.621094 L 57.910156 6.964844 L 58.335938 6.222656 C 58.832031 5.355469 58.875 5.050781 58.53125 4.804688 C 57.835938 4.304688 55.710938 4.015625 54.140625 4.207031 M 46.984375 4.292969 C 46.148438 4.410156 42.238281 4.53125 39.277344 4.535156 C 35.859375 4.535156 35.703125 4.570312 35.707031 5.328125 C 35.710938 5.675781 35.824219 6.277344 35.898438 6.355469 C 35.921875 6.378906 36.460938 6.320312 37.09375 6.222656 C 38.273438 6.042969 39.882812 5.882812 40.511719 5.878906 L 40.867188 5.878906 L 40.867188 11.714844 C 40.867188 15.824219 40.894531 17.609375 40.960938 17.753906 C 41.109375 18.085938 41.597656 18.257812 42.257812 18.207031 C 42.570312 18.1875 42.957031 18.109375 43.125 18.039062 L 43.425781 17.910156 L 43.292969 17.292969 C 43.179688 16.765625 43.160156 15.871094 43.160156 11.296875 L 43.15625 5.921875 L 45.359375 5.921875 C 47.671875 5.921875 48.015625 5.875 48.191406 5.539062 C 48.296875 5.34375 48.296875 5.148438 48.183594 4.625 C 48.09375 4.207031 48.089844 4.199219 47.789062 4.210938 C 47.621094 4.21875 47.257812 4.253906 46.984375 4.292969 M 30.882812 4.371094 C 30.136719 4.449219 29.433594 4.59375 29.195312 4.71875 C 29.085938 4.773438 29.046875 4.898438 29.046875 5.167969 L 29.046875 5.542969 L 30.878906 5.542969 L 30.878906 11.546875 C 30.878906 15.847656 30.90625 17.605469 30.972656 17.757812 C 31.027344 17.875 31.207031 18.023438 31.390625 18.097656 C 31.964844 18.328125 33.601562 18.238281 34.5625 17.925781 L 34.957031 17.792969 L 34.957031 16.972656 L 33.167969 16.925781 L 33.144531 10.742188 C 33.128906 5.621094 33.105469 4.539062 33.011719 4.460938 C 32.855469 4.328125 31.730469 4.28125 30.882812 4.371094 "/>
<path style=" stroke:none;fill-rule:evenodd;fill:rgb(100%,100%,100%);fill-opacity:1;" d="M 0 10.5 L 0 21 L 34.019531 20.980469 L 68.042969 20.957031 L 68.0625 10.480469 L 68.082031 0 L 0 0 L 0 10.5 M 0.0390625 10.542969 C 0.0390625 16.316406 0.0507812 18.667969 0.0625 15.765625 C 0.0742188 12.863281 0.0742188 8.136719 0.0625 5.265625 C 0.0507812 2.390625 0.0390625 4.765625 0.0390625 10.542969 M 47.152344 4.253906 C 46.566406 4.339844 44.839844 4.390625 41.324219 4.4375 C 37.835938 4.480469 36.261719 4.53125 36.105469 4.597656 C 35.984375 4.652344 35.816406 4.792969 35.742188 4.914062 C 35.617188 5.105469 35.609375 5.199219 35.699219 5.734375 C 35.753906 6.070312 35.824219 6.371094 35.859375 6.402344 C 35.890625 6.4375 36.328125 6.390625 36.832031 6.304688 C 38.09375 6.082031 39.230469 5.964844 40.074219 5.964844 L 40.785156 5.964844 L 40.792969 11.695312 C 40.796875 14.851562 40.824219 17.523438 40.859375 17.640625 C 40.933594 17.910156 41.347656 18.191406 41.777344 18.257812 C 42.128906 18.316406 43.25 18.125 43.386719 17.984375 C 43.433594 17.9375 43.414062 17.550781 43.332031 16.980469 C 43.21875 16.210938 43.195312 15.210938 43.195312 11.015625 L 43.195312 5.976562 L 45.480469 5.949219 C 47.65625 5.921875 47.773438 5.914062 47.996094 5.742188 C 48.210938 5.582031 48.230469 5.515625 48.230469 5.070312 C 48.226562 4.539062 48.140625 4.109375 48.042969 4.128906 C 48.011719 4.132812 47.609375 4.191406 47.152344 4.253906 M 53.675781 4.242188 C 51.097656 4.734375 49.886719 5.785156 49.789062 7.609375 C 49.6875 9.492188 50.804688 10.722656 53.757812 11.96875 C 54.589844 12.320312 55.707031 12.984375 56.167969 13.402344 C 56.726562 13.90625 57.011719 14.5 57.011719 15.140625 C 57.011719 15.769531 56.875 16.09375 56.433594 16.492188 C 55.945312 16.9375 55.578125 17.078125 54.890625 17.085938 C 53.953125 17.097656 53.128906 16.695312 51.429688 15.394531 C 50.933594 15.011719 50.492188 14.699219 50.453125 14.699219 C 50.382812 14.699219 49.832031 15.324219 49.460938 15.824219 C 49.355469 15.964844 49.273438 16.164062 49.273438 16.269531 C 49.273438 16.78125 50.640625 17.683594 52.019531 18.085938 C 55.214844 19.015625 58.007812 18.242188 59.03125 16.136719 C 59.269531 15.65625 59.304688 15.492188 59.332031 14.738281 C 59.371094 13.648438 59.226562 13.105469 58.734375 12.496094 C 58.007812 11.59375 57.105469 11.015625 54.789062 9.96875 C 53.4375 9.355469 52.664062 8.839844 52.351562 8.34375 C 52.140625 8.003906 52.101562 7.863281 52.101562 7.390625 C 52.101562 6.648438 52.339844 6.183594 52.894531 5.839844 C 53.273438 5.601562 53.347656 5.585938 54.136719 5.585938 C 55.160156 5.585938 55.519531 5.699219 56.855469 6.4375 C 57.390625 6.730469 57.859375 6.972656 57.898438 6.96875 C 58.003906 6.96875 58.84375 5.421875 58.84375 5.238281 C 58.832031 4.617188 57.601562 4.210938 55.558594 4.15625 C 54.683594 4.128906 54.117188 4.15625 53.675781 4.242188 M 30.214844 4.417969 C 29.089844 4.601562 29.007812 4.652344 29.007812 5.167969 L 29.007812 5.585938 L 29.941406 5.609375 L 30.878906 5.632812 L 30.878906 17.714844 L 31.066406 17.929688 C 31.203125 18.089844 31.382812 18.167969 31.742188 18.226562 C 32.605469 18.367188 34.789062 18.070312 34.972656 17.792969 C 35.011719 17.730469 35.03125 17.511719 35.019531 17.304688 L 35 16.925781 L 33.210938 16.878906 L 33.210938 10.765625 C 33.210938 5.621094 33.191406 4.625 33.089844 4.488281 C 32.988281 4.34375 32.855469 4.324219 31.988281 4.308594 C 31.425781 4.300781 30.664062 4.347656 30.214844 4.417969 M 10.265625 5.683594 C 9.054688 7.101562 7.441406 9.015625 7.054688 9.496094 C 6.445312 10.257812 5.992188 11.628906 5.992188 12.703125 C 5.996094 13.820312 6.542969 15.257812 7.285156 16.105469 C 8.222656 17.179688 9.726562 17.640625 10.929688 17.226562 C 11.828125 16.914062 12.257812 16.515625 14.234375 14.15625 C 14.851562 13.421875 15.492188 12.664062 15.65625 12.476562 C 15.820312 12.289062 16.074219 12.003906 16.214844 11.84375 L 16.476562 11.550781 L 16.476562 14.628906 L 16.480469 17.707031 L 17.417969 17.757812 C 17.929688 17.785156 19.15625 17.824219 20.140625 17.847656 L 21.929688 17.894531 L 22.441406 17.285156 C 22.722656 16.949219 23.527344 15.996094 24.230469 15.167969 C 26.164062 12.894531 26.203125 12.847656 26.503906 12.304688 C 26.894531 11.609375 27.066406 10.871094 27.066406 9.90625 C 27.070312 8.441406 26.59375 7.195312 25.683594 6.277344 C 25.097656 5.6875 24.453125 5.347656 23.632812 5.203125 C 22.691406 5.03125 21.667969 5.359375 20.902344 6.078125 C 20.75 6.222656 19.863281 7.230469 18.9375 8.316406 C 18.007812 9.402344 17.117188 10.441406 16.953125 10.625 L 16.652344 10.960938 L 16.648438 7.878906 C 16.648438 6.183594 16.617188 4.78125 16.582031 4.761719 C 16.550781 4.742188 15.320312 4.699219 13.855469 4.664062 L 11.191406 4.605469 L 10.265625 5.683594 "/>
</g>
</svg>
